<mxfile host="app.diagrams.net" modified="2021-02-16T07:47:22.691Z" agent="5.0 (Macintosh; Intel Mac OS X 10_15_7) AppleWebKit/537.36 (KHTML, like Gecko) Chrome/88.0.4324.150 Safari/537.36" etag="vUUgPr_MJWj6TPMdn1iF" version="14.3.0" type="github">
  <diagram id="xHitaM4kCDe3aCwb0uP9" name="Page-1">
    <mxGraphModel dx="946" dy="580" grid="1" gridSize="10" guides="1" tooltips="1" connect="1" arrows="1" fold="1" page="1" pageScale="1" pageWidth="827" pageHeight="1169" math="0" shadow="0">
      <root>
        <mxCell id="0" />
        <mxCell id="1" parent="0" />
        <mxCell id="2NoKn_8J360TIGk0w2i2-27" style="edgeStyle=orthogonalEdgeStyle;rounded=0;orthogonalLoop=1;jettySize=auto;html=1;dashed=1;dashPattern=1 1;" parent="1" source="2NoKn_8J360TIGk0w2i2-2" target="2NoKn_8J360TIGk0w2i2-20" edge="1">
          <mxGeometry relative="1" as="geometry" />
        </mxCell>
        <mxCell id="2NoKn_8J360TIGk0w2i2-2" value="Bootstrap ClassLoader" style="rounded=1;whiteSpace=wrap;html=1;fillColor=#dae8fc;strokeColor=#6c8ebf;" parent="1" vertex="1">
          <mxGeometry x="210" y="40" width="170" height="50" as="geometry" />
        </mxCell>
        <mxCell id="2NoKn_8J360TIGk0w2i2-26" style="edgeStyle=orthogonalEdgeStyle;rounded=0;orthogonalLoop=1;jettySize=auto;html=1;entryX=0;entryY=0.5;entryDx=0;entryDy=0;dashed=1;dashPattern=1 1;" parent="1" source="2NoKn_8J360TIGk0w2i2-3" target="2NoKn_8J360TIGk0w2i2-23" edge="1">
          <mxGeometry relative="1" as="geometry" />
        </mxCell>
        <mxCell id="2NoKn_8J360TIGk0w2i2-3" value="Platform ClassLoader&lt;br&gt;(&lt;font color=&quot;#ff8000&quot;&gt;Extension ClassLoader&lt;/font&gt;)" style="rounded=1;whiteSpace=wrap;html=1;fillColor=#dae8fc;strokeColor=#6c8ebf;" parent="1" vertex="1">
          <mxGeometry x="210" y="150" width="170" height="50" as="geometry" />
        </mxCell>
        <mxCell id="2NoKn_8J360TIGk0w2i2-25" style="edgeStyle=orthogonalEdgeStyle;rounded=0;orthogonalLoop=1;jettySize=auto;html=1;entryX=0;entryY=0.5;entryDx=0;entryDy=0;dashed=1;dashPattern=1 1;" parent="1" source="2NoKn_8J360TIGk0w2i2-4" target="2NoKn_8J360TIGk0w2i2-24" edge="1">
          <mxGeometry relative="1" as="geometry" />
        </mxCell>
        <mxCell id="2NoKn_8J360TIGk0w2i2-4" value="Application ClassLoader" style="rounded=1;whiteSpace=wrap;html=1;fillColor=#dae8fc;strokeColor=#6c8ebf;" parent="1" vertex="1">
          <mxGeometry x="210" y="260" width="170" height="50" as="geometry" />
        </mxCell>
        <mxCell id="2NoKn_8J360TIGk0w2i2-7" value="User ClassLoader-1" style="rounded=1;whiteSpace=wrap;html=1;fillColor=#d5e8d4;strokeColor=#82b366;" parent="1" vertex="1">
          <mxGeometry x="100" y="370" width="170" height="40" as="geometry" />
        </mxCell>
        <mxCell id="2NoKn_8J360TIGk0w2i2-8" value="User ClassLoader-2" style="rounded=1;whiteSpace=wrap;html=1;fillColor=#d5e8d4;strokeColor=#82b366;" parent="1" vertex="1">
          <mxGeometry x="320" y="370" width="170" height="40" as="geometry" />
        </mxCell>
        <mxCell id="2NoKn_8J360TIGk0w2i2-9" value="User ClassLoader-3" style="rounded=1;whiteSpace=wrap;html=1;fillColor=#d5e8d4;strokeColor=#82b366;" parent="1" vertex="1">
          <mxGeometry x="320" y="470" width="170" height="40" as="geometry" />
        </mxCell>
        <mxCell id="2NoKn_8J360TIGk0w2i2-10" value="" style="shape=flexArrow;endArrow=classic;html=1;" parent="1" edge="1">
          <mxGeometry width="50" height="50" relative="1" as="geometry">
            <mxPoint x="360" y="360" as="sourcePoint" />
            <mxPoint x="350" y="320" as="targetPoint" />
          </mxGeometry>
        </mxCell>
        <mxCell id="2NoKn_8J360TIGk0w2i2-11" value="" style="shape=flexArrow;endArrow=classic;html=1;" parent="1" edge="1">
          <mxGeometry width="50" height="50" relative="1" as="geometry">
            <mxPoint x="405" y="460" as="sourcePoint" />
            <mxPoint x="404.5" y="420" as="targetPoint" />
          </mxGeometry>
        </mxCell>
        <mxCell id="2NoKn_8J360TIGk0w2i2-13" value="" style="shape=flexArrow;endArrow=classic;html=1;" parent="1" edge="1">
          <mxGeometry width="50" height="50" relative="1" as="geometry">
            <mxPoint x="295" y="140" as="sourcePoint" />
            <mxPoint x="294.5" y="100" as="targetPoint" />
          </mxGeometry>
        </mxCell>
        <mxCell id="2NoKn_8J360TIGk0w2i2-15" value="" style="shape=flexArrow;endArrow=classic;html=1;" parent="1" edge="1">
          <mxGeometry width="50" height="50" relative="1" as="geometry">
            <mxPoint x="295" y="250" as="sourcePoint" />
            <mxPoint x="294.5" y="210" as="targetPoint" />
          </mxGeometry>
        </mxCell>
        <mxCell id="2NoKn_8J360TIGk0w2i2-16" value="" style="shape=flexArrow;endArrow=classic;html=1;" parent="1" edge="1">
          <mxGeometry width="50" height="50" relative="1" as="geometry">
            <mxPoint x="230" y="360" as="sourcePoint" />
            <mxPoint x="240" y="320" as="targetPoint" />
          </mxGeometry>
        </mxCell>
        <mxCell id="2NoKn_8J360TIGk0w2i2-18" value="" style="shape=flexArrow;endArrow=classic;html=1;endWidth=40;endSize=9;width=36;fillColor=#dae8fc;strokeColor=#6c8ebf;gradientColor=#7ea6e0;gradientDirection=north;" parent="1" edge="1">
          <mxGeometry width="50" height="50" relative="1" as="geometry">
            <mxPoint x="150" y="260" as="sourcePoint" />
            <mxPoint x="150" y="40" as="targetPoint" />
            <Array as="points">
              <mxPoint x="150" y="180" />
            </Array>
          </mxGeometry>
        </mxCell>
        <mxCell id="2NoKn_8J360TIGk0w2i2-19" value="向&lt;br&gt;上&lt;br&gt;询&lt;br&gt;问&lt;br&gt;是&lt;br&gt;否&lt;br&gt;&lt;font color=&quot;#00cc66&quot;&gt;已&lt;br&gt;加&lt;br&gt;载&lt;/font&gt;" style="edgeLabel;html=1;align=center;verticalAlign=middle;resizable=0;points=[];labelBackgroundColor=none;" parent="2NoKn_8J360TIGk0w2i2-18" vertex="1" connectable="0">
          <mxGeometry x="0.696" y="3" relative="1" as="geometry">
            <mxPoint x="3" y="65" as="offset" />
          </mxGeometry>
        </mxCell>
        <mxCell id="2NoKn_8J360TIGk0w2i2-20" value="jre/lib/rt.jar&lt;br&gt;jre/lib/resources.jar&lt;br&gt;jre/lib/jsse.jar&lt;br&gt;jre/lib/jce.jar&lt;br&gt;jre/lib/charsets.jar&lt;br&gt;jre/lib/jfr.jar等" style="rounded=1;whiteSpace=wrap;html=1;fillColor=#e1d5e7;strokeColor=#9673a6;" parent="1" vertex="1">
          <mxGeometry x="520" y="17.5" width="120" height="95" as="geometry" />
        </mxCell>
        <mxCell id="2NoKn_8J360TIGk0w2i2-21" value="" style="shape=flexArrow;endArrow=classic;html=1;width=40;endSize=9;endWidth=40;fillColor=#dae8fc;strokeColor=#6c8ebf;gradientColor=#7ea6e0;" parent="1" edge="1">
          <mxGeometry width="50" height="50" relative="1" as="geometry">
            <mxPoint x="450" y="90" as="sourcePoint" />
            <mxPoint x="450" y="310" as="targetPoint" />
          </mxGeometry>
        </mxCell>
        <mxCell id="2NoKn_8J360TIGk0w2i2-22" value="逐&lt;br&gt;层&lt;br&gt;尝&lt;br&gt;试&lt;br&gt;是&lt;br&gt;否&lt;br&gt;&lt;font color=&quot;#ff0000&quot;&gt;可&lt;br&gt;加&lt;br&gt;载&lt;/font&gt;" style="edgeLabel;html=1;align=center;verticalAlign=middle;resizable=0;points=[];labelBackgroundColor=none;" parent="2NoKn_8J360TIGk0w2i2-21" vertex="1" connectable="0">
          <mxGeometry x="-0.5667" y="-3" relative="1" as="geometry">
            <mxPoint x="3" y="80" as="offset" />
          </mxGeometry>
        </mxCell>
        <mxCell id="2NoKn_8J360TIGk0w2i2-23" value="jre/lib/ext/*.jar等" style="rounded=1;whiteSpace=wrap;html=1;fillColor=#e1d5e7;strokeColor=#9673a6;" parent="1" vertex="1">
          <mxGeometry x="520" y="150" width="120" height="50" as="geometry" />
        </mxCell>
        <mxCell id="2NoKn_8J360TIGk0w2i2-24" value="CLASSPATH" style="rounded=1;whiteSpace=wrap;html=1;fillColor=#e1d5e7;strokeColor=#9673a6;" parent="1" vertex="1">
          <mxGeometry x="520" y="260" width="120" height="50" as="geometry" />
        </mxCell>
        <mxCell id="2NoKn_8J360TIGk0w2i2-29" value="" style="endArrow=none;dashed=1;html=1;dashPattern=1 1;" parent="1" edge="1">
          <mxGeometry width="50" height="50" relative="1" as="geometry">
            <mxPoint x="210" y="520" as="sourcePoint" />
            <mxPoint x="210" y="520" as="targetPoint" />
            <Array as="points">
              <mxPoint x="90" y="520" />
              <mxPoint x="90" y="360" />
              <mxPoint x="500" y="360" />
              <mxPoint x="500" y="520" />
            </Array>
          </mxGeometry>
        </mxCell>
        <mxCell id="2NoKn_8J360TIGk0w2i2-30" value="&lt;font style=&quot;font-size: 16px&quot;&gt;自定义类加载器&lt;/font&gt;" style="text;html=1;align=center;verticalAlign=middle;resizable=0;points=[];autosize=1;" parent="1" vertex="1">
          <mxGeometry x="115" y="460" width="130" height="20" as="geometry" />
        </mxCell>
      </root>
    </mxGraphModel>
  </diagram>
</mxfile>
